<?xml version="1.0" encoding="UTF-8"?>
<svg xmlns="http://www.w3.org/2000/svg" viewBox="0 0 192 192"><path d="M129.2 57.2l5.7 5.7L116 81.7l-10.8-10.8 5.7-5.7 5.2 5.2 13.1-13.2zM116 98.3l-5.2-5.2-5.7 5.7 10.8 10.8 18.8-18.8-5.7-5.7-13 13.2zM56 76h40v-8H56v8zm0 28h40v-8H56v8zm0 28h40v-8H56v8zm64 44H40V24h28v-8h56v8h28v80.8c-2.6-.5-5.3-.8-8-.8V32h-20v8H68v-8H48v136h64c2.3 3 5 5.7 8 8zM76 32h40v-8H76v8zm82.8 106.8l-5.7-5.7-13.1 13.2-5.2-5.2-5.7 5.7 10.8 10.8 18.9-18.8zM176 144c0-17.6-14.4-32-32-32s-32 14.4-32 32 14.4 32 32 32 32-14.4 32-32zm-8 0c0 13.2-10.8 24-24 24s-24-10.8-24-24 10.8-24 24-24 24 10.8 24 24z" style="fill: #007bc0;"/></svg>
