<?xml version="1.0" encoding="UTF-8"?>
<svg xmlns="http://www.w3.org/2000/svg" viewBox="0 0 192 192"><path d="M129.171 57.171l5.658 5.658L116 81.657l-10.829-10.828 5.658-5.658L116 70.343l13.171-13.172zM116 98.343l-5.171-5.172-5.658 5.658L116 109.657l18.829-18.828-5.658-5.658L116 98.343zm0 28l-5.171-5.172-5.658 5.658L116 137.657l18.829-18.828-5.658-5.658L116 126.343zM152 24v152H40V24h28v-8h56v8h28zm-76 8h40v-8H76v8zm68 0h-20v8H68v-8H48v136h96V32zM56 76h40v-8H56v8zm0 28h40v-8H56v8zm0 28h40v-8H56v8z" style="fill: #007bc0;"/></svg>
