<?xml version="1.0" encoding="iso-8859-1"?>
<!-- Generator: Adobe Illustrator 19.0.0, SVG Export Plug-In . SVG Version: 6.00 Build 0)  -->
<svg version="1.1" id="Layer_1" xmlns="http://www.w3.org/2000/svg" xmlns:xlink="http://www.w3.org/1999/xlink" x="0px" y="0px"
	 viewBox="0 0 511.999 511.999" style="enable-background:new 0 0 511.999 511.999;" xml:space="preserve">
<g>
	<g>
		<path d="M509.606,33.205L478.793,2.393c-3.192-3.191-8.364-3.191-11.555,0l-55.84,55.84l-17.331-17.331
			c-1.533-1.533-3.61-2.393-5.778-2.393s-4.244,0.861-5.778,2.393l-33.322,33.322c-6.613-4.377-14.381-6.73-22.527-6.73
			c-10.937,0-21.196,4.236-28.887,11.926L187.071,190.125c-3.191,3.191-3.191,8.364,0,11.554c1.595,1.596,3.686,2.393,5.777,2.393
			c2.091,0,4.182-0.797,5.777-2.393L309.331,90.974c4.604-4.604,10.759-7.14,17.331-7.14c3.719,0,7.292,0.839,10.539,2.378
			L76.367,347.047c-0.032,0.032-0.058,0.066-0.089,0.099c-0.112,0.117-0.221,0.237-0.328,0.363c-0.082,0.096-0.162,0.191-0.24,0.289
			c-0.08,0.102-0.156,0.208-0.231,0.315c-0.091,0.13-0.181,0.259-0.264,0.393c-0.025,0.039-0.053,0.075-0.077,0.115l-57.771,96.286
			c-1.929,3.215-1.423,7.331,1.229,9.981l2.232,2.232L7.041,470.907c-9.388,9.388-9.388,24.663,0,34.051
			c4.694,4.694,10.86,7.041,17.025,7.041c6.165,0,12.332-2.347,17.025-7.041l13.787-13.787l2.232,2.232
			c1.575,1.575,3.667,2.393,5.78,2.393c1.443,0,2.897-0.381,4.201-1.165l96.286-57.771c0.034-0.021,0.063-0.045,0.097-0.064
			c0.149-0.093,0.295-0.192,0.439-0.294c0.09-0.064,0.181-0.13,0.269-0.197c0.113-0.088,0.224-0.182,0.334-0.278
			c0.108-0.094,0.215-0.187,0.316-0.286c0.039-0.037,0.081-0.069,0.119-0.108c0.02-0.022,306.144-306.147,306.144-306.147
			c3.191-3.191,3.191-8.364,0-11.554L453.764,100.6l55.841-55.841C512.796,41.568,512.796,36.395,509.606,33.205z M29.537,493.404
			c-1.462,1.461-3.404,2.266-5.471,2.266c-2.067,0-4.009-0.805-5.471-2.266c-1.461-1.462-2.266-3.404-2.266-5.471
			c0-2.067,0.805-4.009,2.266-5.471l13.787-13.787l10.942,10.942L29.537,493.404z M159.175,418.301l-9.628-9.628
			c-3.191-3.191-8.364-3.191-11.554,0c-3.191,3.191-3.191,8.364,0,11.554l8.006,8.006l-81.844,49.106l-29.494-29.494l49.105-81.843
			l31.117,31.117c1.595,1.596,3.687,2.393,5.777,2.393s4.182-0.797,5.777-2.393c3.191-3.191,3.191-8.364,0-11.554l-32.739-32.739
			L349.771,96.752l65.476,65.476L159.175,418.301z M453.766,123.711l-26.963,26.962l-65.476-65.476l26.963-26.963l17.317,17.317
			c0.028,0.028,30.814,30.815,30.814,30.815C436.444,106.39,453.766,123.711,453.766,123.711z M442.21,89.045l-19.257-19.257
			l50.063-50.064l19.258,19.258L442.21,89.045z"/>
	</g>
</g>
<g>
</g>
<g>
</g>
<g>
</g>
<g>
</g>
<g>
</g>
<g>
</g>
<g>
</g>
<g>
</g>
<g>
</g>
<g>
</g>
<g>
</g>
<g>
</g>
<g>
</g>
<g>
</g>
<g>
</g>
</svg>
