<svg width="24px" height="24px" viewBox="0 0 24 24" xmlns="http://www.w3.org/2000/svg"><path d="M9.52037,12.347304c-0.012492-0.112427-0.024983-0.224854-0.024983-0.349771 c0-1.374102,1.124265-2.498367,2.498366-2.498367c0.124919,0,0.237346,0.012492,0.349772,0.024983l0.82446-0.824461 c-0.362263-0.13741-0.762001-0.199869-1.174232-0.199869c-1.923742,0-3.497713,1.573971-3.497713,3.497714 c0,0.41223,0.07495,0.811969,0.199869,1.174232L9.52037,12.347304z"/><path d="M14.467137,11.647761c0.012491,0.112426,0.024983,0.237345,0.024983,0.349771	c0,1.374102-1.124266,2.498366-2.498367,2.498366c-0.124918,0-0.237345-0.012491-0.349771-0.024982l-0.824461,0.824461 c0.362264,0.137409,0.762002,0.199869,1.174232,0.199869c1.923743,0,3.497714-1.573972,3.497714-3.497714 c0-0.412231-0.074951-0.81197-0.199869-1.174232L14.467137,11.647761z"/><rect x="1.385495" y="11.500332" transform="matrix(0.707107 -0.707107 0.707107 0.707107 -4.97504 11.989192)" width="21.198441" height="0.999337"/><path d="M21.425089,11.760187c-0.049967-0.087442-1.149248-2.086137-3.360302-3.710075l-0.712034,0.712034 c1.673904,1.199216,2.698236,2.660762,3.060499,3.235386c-0.649576,1.02433-3.485222,4.996735-8.407005,4.996735 c-0.861938,0-1.69889-0.124918-2.510859-0.362263l-0.762002,0.762003l-0.012492,0.049967 c1.049314,0.374756,2.161087,0.562132,3.285353,0.562132c6.220934,0,9.306417-5.52139,9.431335-5.758735l0.124918-0.237346 L21.425089,11.760187z"/><path d="M5.922722,15.944952l0.712035-0.712034c-1.673906-1.186724-2.698237-2.66076-3.0605-3.235385 c0.649575-1.02433,3.485221-4.996734,8.407005-4.996734c0.861937,0,1.698889,0.124918,2.510859,0.362263l0.762002-0.762002 l0.012491-0.049968c-1.036822-0.362263-2.148596-0.549641-3.272861-0.549641c-6.220933,0-9.306417,5.52139-9.431335,5.758735 L2.4375,11.997533l0.124918,0.237345C2.612386,12.32232,3.711667,14.321013,5.922722,15.944952z"/></svg>
